<?xml version="1.0" encoding="UTF-8" standalone="no"?>
<!DOCTYPE svg PUBLIC "-//W3C//DTD SVG 1.1//EN" "http://www.w3.org/Graphics/SVG/1.1/DTD/svg11.dtd">
<svg width="100%" height="100%" viewBox="0 0 512 512" version="1.1" xmlns="http://www.w3.org/2000/svg" xmlns:xlink="http://www.w3.org/1999/xlink" xml:space="preserve" xmlns:serif="http://www.serif.com/" style="fill-rule:evenodd;clip-rule:evenodd;stroke-linecap:round;stroke-linejoin:round;stroke-miterlimit:1.5;">
    <g transform="matrix(-0.682927,0.730486,-0.730486,-0.682927,570.857,369.489)">
        <path d="M47.958,33.7C16.796,81.966 77.56,81.764 90.173,66.901C107.717,46.228 81.936,13.551 69.158,31.816C57.857,47.971 78.989,49.493 101.087,68.989C103.885,71.458 114.827,85.508 115.492,92.804" style="fill:none;stroke:rgb(203,125,125);stroke-width:4.92px;"/>
    </g>
    <path d="M377.128,97.172C415.294,65.773 477.464,32.659 477.464,31.816" style="fill:none;stroke:rgb(203,125,125);stroke-width:4.92px;"/>
    <path d="M47.958,33.7C16.796,81.966 77.56,81.764 90.173,66.901C107.717,46.228 81.936,13.551 69.158,31.816C57.857,47.971 78.989,49.493 101.087,68.989C103.885,71.458 114.827,85.508 115.492,92.804" style="fill:none;stroke:rgb(203,125,125);stroke-width:4.92px;"/>
    <g transform="matrix(0.877328,0,0,0.877328,-103.327,86.0935)">
        <g transform="matrix(1,0,0,1,220.687,78.479)">
            <text x="0px" y="0px" style="font-family:'Arial-BoldMT', 'Arial', sans-serif;font-weight:700;font-size:147.667px;">milion</text>
        </g>
        <g transform="matrix(1,0,0,1,343.766,230.977)">
            <text x="0px" y="0px" style="font-family:'Arial-BoldMT', 'Arial', sans-serif;font-weight:700;font-size:147.667px;">style</text>
        </g>
        <g transform="matrix(1,0,0,1,138.634,383.474)">
            <text x="0px" y="0px" style="font-family:'Arial-BoldMT', 'Arial', sans-serif;font-weight:700;font-size:147.667px;">design</text>
        </g>
    </g>
    <path d="M118.887,105.459C118.887,105.459 120.578,108.499 121.156,109.66C125.117,117.622 134.766,138.374 159.271,151.007C175.509,159.378 198.318,164.218 230.438,159.206C303.302,147.836 367.251,109.333 367.251,109.333C366.446,107.758 365.453,106.51 364.378,105.348C364.378,105.348 301.364,143.157 229.679,154.343C198.927,159.142 177.073,154.647 161.527,146.632C138.356,134.687 129.308,114.996 125.563,107.468C124.714,105.76 122.484,101.893 122.484,101.893C121.247,102.688 120.022,103.603 118.887,105.459Z" style="fill:rgb(203,125,125);"/>
    <g transform="matrix(-0.682927,0.730486,-0.730486,-0.682927,570.857,369.489)">
        <path d="M120.841,108.198C120.841,108.198 128.614,132.497 153.737,147.851C170.26,157.949 194.729,164.778 230.438,159.206C303.302,147.836 355.813,117.665 365.548,110.539C366.644,109.736 366.882,108.195 366.08,107.099C365.277,106.003 363.736,105.765 362.64,106.567C353.063,113.578 301.364,143.157 229.679,154.343C195.53,159.672 172.105,153.308 156.304,143.651C132.94,129.372 124.764,104.513 124.764,104.513L120.841,108.198Z" style="fill:rgb(203,125,125);"/>
    </g>
</svg>
