<?xml version="1.0" encoding="UTF-8" standalone="no"?>
<!DOCTYPE svg PUBLIC "-//W3C//DTD SVG 1.1//EN" "http://www.w3.org/Graphics/SVG/1.1/DTD/svg11.dtd">
<svg width="100%" height="100%" viewBox="0 0 512 512" version="1.1" xmlns="http://www.w3.org/2000/svg" xmlns:xlink="http://www.w3.org/1999/xlink" xml:space="preserve" xmlns:serif="http://www.serif.com/" style="fill-rule:evenodd;clip-rule:evenodd;stroke-linecap:round;stroke-linejoin:round;stroke-miterlimit:1.5;">
    <g transform="matrix(1,0,0,1,-2.84217e-14,-10.3674)">
        <path d="M162.901,77.198C117.79,77.198 81.22,115.358 81.22,162.431C81.22,209.472 117.82,247.663 162.901,247.663C208.012,247.663 244.582,209.503 244.582,162.431L162.901,162.431L162.901,77.198Z" style="fill:rgb(198,198,198);"/>
    </g>
    <g transform="matrix(1.1762,0,0,1.14912,174.795,-75.3484)">
        <path d="M162.901,77.198C117.79,77.198 81.22,115.358 81.22,162.431C81.22,209.472 117.82,247.663 162.901,247.663C208.012,247.663 244.582,209.503 244.582,162.431L162.901,162.431L162.901,77.198Z" style="fill:rgb(157,157,157);"/>
    </g>
    <g transform="matrix(1,0,0,1,7.17747,-16.3604)">
        <circle cx="60.286" cy="65.236" r="35.513" style="fill:rgb(45,45,45);"/>
    </g>
    <g transform="matrix(0.815558,0,0,0.728821,121.677,9.89991)">
        <path d="M256,465.87C211.608,465.87 175.568,427.326 175.568,379.85C175.568,332.375 211.608,293.831 256,293.831L478.597,293.831L478.597,465.87L256,465.87Z" style="fill:rgb(45,45,45);"/>
    </g>
    <g transform="matrix(0.239915,0,0,0.404223,268.58,259.18)">
        <path d="M256,465.87C211.608,465.87 175.568,427.326 175.568,379.85C175.568,332.375 211.608,293.831 256,293.831L771.236,293.831L771.236,465.87L256,465.87Z" style="fill:rgb(45,45,45);"/>
    </g>
    <g transform="matrix(0.337742,0,0,0.337742,317.161,390.691)">
        <circle cx="60.286" cy="65.236" r="35.513"/>
    </g>
    <path d="M133.134,256C80.334,256 37.532,300.663 37.532,355.758C37.532,410.815 80.37,455.515 133.134,455.515C185.933,455.515 228.735,410.852 228.735,355.758L133.134,355.758L133.134,256ZM98.273,377.953C104.893,377.953 110.268,383.327 110.268,389.947C110.268,396.567 104.893,401.942 98.273,401.942C91.654,401.942 86.279,396.567 86.279,389.947C86.279,383.327 91.654,377.953 98.273,377.953Z" style="fill:rgb(207,119,119);"/>
    <g transform="matrix(0.652117,0,0,1,141.509,33.6161)">
        <path d="M478.597,465.87L256,465.87C211.608,465.87 175.568,427.326 175.568,379.85C175.568,332.375 211.608,293.831 256,293.831L478.597,293.831" style="fill:none;stroke:rgb(207,119,119);stroke-width:1.44px;"/>
    </g>
    <g transform="matrix(0.596586,0,0,0.914845,159.673,65.9622)">
        <path d="M492.7,465.87L256,465.87C211.608,465.87 175.568,427.326 175.568,379.85C175.568,332.375 211.608,293.831 256,293.831L492.7,293.831" style="fill:none;stroke:rgb(207,119,119);stroke-width:1.57px;"/>
    </g>
    <g transform="matrix(0.521227,0,0,0.799285,181.903,109.116)">
        <path d="M521.285,465.87L256,465.87C211.608,465.87 175.568,427.326 175.568,379.85C175.568,332.375 211.608,293.831 256,293.831L521.285,293.831" style="fill:none;stroke:rgb(207,119,119);stroke-width:1.8px;"/>
    </g>
    <g transform="matrix(0.457472,0,0,0.701519,202.235,146.994)">
        <path d="M549.487,465.87L256,465.87C211.608,465.87 175.568,427.326 175.568,379.85C175.568,332.375 211.608,293.831 256,293.831L549.487,293.831" style="fill:none;stroke:rgb(207,119,119);stroke-width:2.05px;"/>
    </g>
    <g transform="matrix(0.39691,0,0,0.608648,222.044,181.529)">
        <path d="M583.423,465.87L256,465.87C211.608,465.87 175.568,427.326 175.568,379.85C175.568,332.375 211.608,293.831 256,293.831L583.423,293.831" style="fill:none;stroke:rgb(207,119,119);stroke-width:2.36px;"/>
    </g>
    <g transform="matrix(0.333227,0,0,0.510993,241.647,218.623)">
        <path d="M636.091,465.87L256,465.87C211.608,465.87 175.568,427.326 175.568,379.85C175.568,332.375 211.608,293.831 256,293.831L636.091,293.831" style="fill:none;stroke:rgb(207,119,119);stroke-width:2.81px;"/>
    </g>
</svg>
